<?xml version="1.0" encoding="UTF-8"?>
<svg id="Layer_1" data-name="Layer 1" xmlns="http://www.w3.org/2000/svg" version="1.1" xmlns:xlink="http://www.w3.org/1999/xlink" viewBox="0 0 500 500">
  <defs>
    <style>
      .cls-1 {
        fill: #202b38;
      }

      .cls-1, .cls-2, .cls-3, .cls-4, .cls-5, .cls-6, .cls-7, .cls-8, .cls-9, .cls-10, .cls-11, .cls-12, .cls-13, .cls-14, .cls-15, .cls-16, .cls-17, .cls-18, .cls-19 {
        stroke-width: 0px;
      }

      .cls-2 {
        fill: #000;
      }

      .cls-3 {
        fill: #a5ff79;
      }

      .cls-4 {
        fill: #34df6f;
      }

      .cls-5 {
        fill: #1733ad;
      }

      .cls-20 {
        clip-path: url(#clippath-2);
      }

      .cls-6 {
        fill: #072ecf;
      }

      .cls-7 {
        fill: #b3e7e8;
      }

      .cls-8 {
        fill: #a1b5f0;
      }

      .cls-9 {
        fill: none;
      }

      .cls-10 {
        fill: #001d9c;
      }

      .cls-11 {
        fill: #3f60f5;
      }

      .cls-21 {
        clip-path: url(#clippath-1);
      }

      .cls-22 {
        opacity: .3;
      }

      .cls-12 {
        fill: #647ef5;
      }

      .cls-13 {
        fill: #6e91ff;
      }

      .cls-23 {
        clip-path: url(#clippath);
      }

      .cls-14 {
        fill: #2bb85b;
      }

      .cls-24 {
        clip-path: url(#clippath-3);
      }

      .cls-15 {
        fill: #284ae0;
      }

      .cls-16 {
        fill: #9eabba;
      }

      .cls-17 {
        fill: #baa69e;
      }

      .cls-18 {
        fill: #fff;
      }

      .cls-25 {
        opacity: .2;
      }

      .cls-19 {
        fill: #331306;
      }
    </style>
    <clipPath id="clippath">
      <path class="cls-9" d="M242.4,254.2l5.5,13.4c1.1,2.6,3.6,4.4,6.5,4.4h68.8c3.3,0,6.2-2.3,6.9-5.5l3.1-14.4c.4-2,0-4.1-1.3-5.7-1.2-1.5-2.9-2.5-4.9-2.7l-21.1-2.1c-1.3-.1-2.6,0-3.7.6l-7.1,3.4c-1.8.9-4,.9-5.8.1l-8.3-3.6c-1.1-.5-2.3-.7-3.4-.5l-28.4,2.6c-1.2.1-2.3.5-3.3,1.1l-.8.5c-2.8,1.8-3.9,5.4-2.6,8.5Z"/>
    </clipPath>
    <clipPath id="clippath-1">
      <path class="cls-9" d="M242.4,254.2l5.5,13.4c1.1,2.6,3.6,4.4,6.5,4.4h68.8c3.3,0,6.2-2.3,6.9-5.5l3.1-14.4c.4-2,0-4.1-1.3-5.7-1.2-1.5-2.9-2.5-4.9-2.7l-21.1-2.1c-1.3-.1-2.6,0-3.7.6l-7.1,3.4c-1.8.9-4,.9-5.8.1l-8.3-3.6c-1.1-.5-2.3-.7-3.4-.5l-28.4,2.6c-1.2.1-2.3.5-3.3,1.1l-.8.5c-2.8,1.8-3.9,5.4-2.6,8.5Z"/>
    </clipPath>
    <clipPath id="clippath-2">
      <path class="cls-9" d="M186.9,221.4l89.6-53-35.9-9.4c-8.6-2.2-17.7-1-25.4,3.3l-49.4,27.4c-1.9,1.1-3.7,2.3-5.4,3.6l26.5,28.1Z"/>
    </clipPath>
    <clipPath id="clippath-3">
      <path class="cls-9" d="M179.4,212.6l89.6-53-35.9-9.4c-8.6-2.2-17.7-1-25.4,3.3l-49.4,27.4c-1.9,1.1-3.7,2.3-5.4,3.6l26.5,28.1Z"/>
    </clipPath>
  </defs>
  <g id="OBJECTS">
    <g>
      <path class="cls-19" d="M365.5,264.7c-6.2,0-11.5-3.1-17.1-6.3-6.8-4-13.9-8.1-23.3-6.8-6,.8-11.8,3.7-17.3,8.6-.9.8-2.2.7-3-.2-.8-.9-.7-2.2.2-3,6.1-5.5,12.7-8.7,19.5-9.7,10.9-1.5,18.9,3.2,26.1,7.3,5.6,3.2,10.3,6,15.7,5.7,11.7-.6,23.2-16.2,34.1-46.3.4-1.1,1.6-1.7,2.7-1.3,1.1.4,1.7,1.6,1.3,2.7-11.7,32.3-24.1,48.4-37.9,49.1-.3,0-.7,0-1,0Z"/>
      <polygon class="cls-4" points="393.6 211.6 458.1 211.6 467.2 163.3 402.7 163.3 393.6 211.6"/>
      <rect class="cls-14" x="393.6" y="211.6" width="64.5" height="117.9"/>
      <polygon class="cls-3" points="467.2 163.3 471.8 157.7 471.8 281.8 467.2 289.2 467.2 163.3"/>
      <polygon class="cls-14" points="407.3 157.7 471.8 157.7 467.2 163.3 402.7 163.3 407.3 157.7"/>
      <polygon class="cls-3" points="458.1 329.5 471.8 323.5 471.8 157.7 467.2 163.3 458.1 211.6 458.1 329.5"/>
      <polygon class="cls-19" points="399.2 205.4 452 205.4 459.3 166.9 406.4 166.9 399.2 205.4"/>
      <path class="cls-18" d="M423.9,240.9l-10.4,19.4c-.2.4,0,.8.5.8h6c.4,0,.6.3.6.7l-2.5,12.1c-.1.6.7.9,1,.4l12.4-18.5c.3-.4,0-.9-.5-.9h-7.3c-.3,0-.6-.2-.6-.5l1.8-13c0-.6-.8-.9-1.1-.3Z"/>
      <g>
        <g>
          <polygon class="cls-17" points="435.6 183.3 436.5 177.8 422.7 177.8 421.7 183.3 435.6 183.3"/>
          <g>
            <polygon class="cls-3" points="434.3 190.4 435.2 185.1 421.4 185.1 420.4 190.4 434.3 190.4"/>
            <polygon class="cls-14" points="420.1 192.3 419.1 197.8 432.9 197.8 433.9 192.3 420.1 192.3"/>
          </g>
        </g>
        <polygon class="cls-17" points="433.4 176.1 433.9 173.4 427 173.4 426.5 176.1 433.4 176.1"/>
      </g>
    </g>
    <g class="cls-25">
      <ellipse class="cls-2" cx="187.8" cy="322.9" rx="163.3" ry="8.8"/>
    </g>
    <g>
      <g>
        <ellipse class="cls-2" cx="166.4" cy="276.6" rx="30.7" ry="42.5"/>
        <ellipse class="cls-2" cx="45" cy="272" rx="21.4" ry="39"/>
        <path class="cls-1" d="M286.7,209.2h-3.3c-3.4,0-6.2-2.8-6.2-6.2v-.8c0-3.4,2.8-6.2,6.2-6.2h3.3c3.4,0,6.2,2.8,6.2,6.2v.8c0,3.4-2.8,6.2-6.2,6.2Z"/>
        <ellipse class="cls-1" cx="177" cy="297.3" rx="30.7" ry="42.5"/>
        <path class="cls-2" d="M177,254.8c-2.3,0-4.6.4-6.8,1.1,13.7,4.3,23.9,21.2,23.9,41.4s-10.2,37.1-23.9,41.4c2.2.7,4.5,1.1,6.8,1.1,17,0,30.7-19,30.7-42.5s-13.8-42.5-30.7-42.5Z"/>
        <ellipse class="cls-1" cx="45" cy="289.5" rx="21.4" ry="34.7"/>
        <path class="cls-2" d="M45,254.8c-1.4,0-2.7.2-4,.6,9.9,3,17.4,17.1,17.4,34.1s-7.5,31.1-17.4,34.1c1.3.4,2.6.6,4,.6,11.8,0,21.4-15.5,21.4-34.7,0-19.1-9.6-34.7-21.4-34.7Z"/>
        <ellipse class="cls-16" cx="41.1" cy="288.6" rx="11" ry="22.4"/>
        <g class="cls-22">
          <path class="cls-2" d="M45,254.8c-.7,0-1.3,0-2,.2v69c.7,0,1.3.2,2,.2,11.8,0,21.4-15.5,21.4-34.7,0-19.1-9.6-34.7-21.4-34.7Z"/>
        </g>
        <ellipse class="cls-2" cx="323.8" cy="293.4" rx="28.3" ry="38.6"/>
        <path class="cls-1" d="M323.8,254.8c-1.8,0-3.5.2-5.1.6,13.2,3.3,23.2,19,23.2,38s-10,34.7-23.2,38c1.7.4,3.4.6,5.1.6,15.6,0,28.3-17.3,28.3-38.6,0-21.3-12.7-38.6-28.3-38.6Z"/>
        <ellipse class="cls-16" cx="320.9" cy="291.5" rx="18.3" ry="25"/>
        <g class="cls-22">
          <path class="cls-2" d="M323.8,254.8c-1,0-2,0-2.9.2v76.8c1,.1,1.9.2,2.9.2,15.6,0,28.3-17.3,28.3-38.6,0-21.3-12.7-38.6-28.3-38.6Z"/>
        </g>
        <path class="cls-5" d="M285,207.8l-34.3-35.5c-8.2-8.4-19.4-13.4-31.2-13.9l-75.2-3.1c-3.8-.2-7.6,0-11.4.7l-22.5,3.9c-13.6,2.3-26.2,8.6-36.2,18.1-10.3,9.7-22.3,22.3-26.7,32.6-.7,1.7-2,3.1-3.6,4.2-3.6,2.3-9.7,7.9-11,19v11.5l23.5,8.4,9.2,45.8,76.9,3.5-3.1-30.8,28.9-32.8,116.6-31.5Z"/>
        <g>
          <path class="cls-13" d="M64.6,227.3c0,1.7.2,3.2.3,4.4.2,2.2,1.2,4.3,2.8,5.7.4.4,1.2.8,1.7,1.1l-.6-4.9c-.2-1.6,0-4.4.3-6.6l-4.5.3Z"/>
          <path class="cls-10" d="M69.4,224.9l1.2-3.4s-6-2.1-6,3.3c0,.9,0,1.7,0,2.5l4.5-.3c.1-.8.2-1.5.3-2.1Z"/>
        </g>
        <path class="cls-15" d="M76.3,210l-5.2,7.4c-3.6,5.2-1.3,11.9-1.3,18.2h0c0,1.6.1,3.2.4,4.7l9.8,47.1c.2,1.1.7,2.2,1.5,3h0c1,1,2.3,1.7,3.7,1.8l47.9,1.6c1.4,0,2.6-1.1,2.6-2.5v-61.4c0-3.2,3.3-6.3,4-9.4l6.7-14.6-70,4Z"/>
        <ellipse class="cls-16" cx="168.5" cy="298.7" rx="16.6" ry="28.2"/>
        <g class="cls-22">
          <path class="cls-2" d="M177,254.8c-2.9,0-5.8.6-8.5,1.7v81.6c2.7,1.1,5.5,1.7,8.5,1.7,17,0,30.7-19,30.7-42.5s-13.8-42.5-30.7-42.5Z"/>
        </g>
        <path class="cls-11" d="M301.1,208l-144.3-2.1c-.3,0-.6,0-.9,0-13.4.6-15.4,19.7-3.2,24.8.5.2,1.1.3,1.6.5,2.5.9,3.9,2.2,6.4,3.1,0,0,0,0,0,0h0c4.4-2.8,9.2-4.3,14.2-4.3,20,0,36.3,24.1,36.3,53.8s-.6,10.9-1.6,15.9c-.6,2.7,1.5,5.2,4.3,5.2,24.9,0,124.8,0,124.8,0,10.2,0,18.4-8.2,18.4-18.4v-22.6c0-30.9-25.1-56-56-56Z"/>
        <path class="cls-13" d="M238,246.8c-10.3-1.7-51.7-9.7-40.9-30.8,0,0,8.8-10.4,39.6,15.2,1.2,1,2.3,2,3.3,3.1l3,3.2c2.3,2.5,1.9,6.4-.8,8.4h0c-1.2.8-2.7,1.2-4.1,1Z"/>
        <path class="cls-13" d="M45.2,229.6c-12.7.7-24.4,22.8-24.4,49.2s0,4.9.3,7.3c.1,1.6,2.5,1.6,2.6,0,.4-15.3,4.8-36.8,17.4-37.1,8.6-.2,23.1,21.9,23.1,49v.3c0,5.5,7.8,6.5,9.2,1.2,1.6-6.6,1.1-14.9.4-22.7-3.3-34.1-18.8-47.6-28.4-47Z"/>
        <path class="cls-1" d="M146.3,206l138.7,1.8-34.3-35.5c-8.2-8.4-19.4-13.4-31.2-13.9l-75.2-3.1c-2.9-.1-5.8,0-8.7.4l10.7,50.4Z"/>
        <path class="cls-2" d="M133,156l-22.5,3.9c-7.6,1.3-14.9,3.9-21.6,7.5h-.2c0,.1-.1.2-.2.2l-12.2,42.4,70-4-10.7-50.4c-.9.1-1.8.2-2.7.4Z"/>
        <path class="cls-13" d="M329.5,226.5l1.1,15.9c.1,1.7,1.2,3.2,2.7,4h0c2.1,1,4.6.4,6-1.4l5.1-6.6-14.9-11.9Z"/>
        <path class="cls-13" d="M252.4,244.6l24.3-4.2c2.3-.6,4.7-.3,6.9.6l3.9,1.7c2.9,1.3,6.2,1.2,9.1-.2l2.5-1.2c2.3-1.1,4.9-1.4,7.4-.8l20.6,4-59.5,14.2-15.1-14.1Z"/>
        <polygon class="cls-12" points="253.6 275.3 257.6 302.9 320.9 302.9 329.3 275.1 253.6 275.3"/>
        <path class="cls-10" d="M334.9,253.4c-.6,0-1.1-.5-1.2-1.1,0-.7.4-1.3,1.1-1.3,0,0,6.2-.8,17.9-6.1.6-.3,1.3,0,1.6.6.3.6,0,1.3-.6,1.6-12.1,5.5-18.4,6.2-18.6,6.3,0,0,0,0-.1,0Z"/>
        <g>
          <path class="cls-13" d="M323.2,272h-68.8c-2.9,0-5.4-1.7-6.5-4.4l-5.5-13.4c-.2-.5-.4-1.1-.4-1.6-.2,1.3,0,2.6.5,3.9l5.8,14.2c1.1,2.8,3.8,4.6,6.9,4.6h72.6c1.7,0,3.3-.6,4.6-1.6l-4.1-3.7c-1.3,1.3-3,2-4.9,2Z"/>
          <path class="cls-6" d="M334.9,269.4l3.3-15.2c.5-2.1,0-4.3-1.4-6.1-1.2-1.6-3.1-2.7-5.1-2.9h-.9c.4.2.8.6,1.1,1,1.2,1.6,1.7,3.7,1.3,5.7l-3.1,14.4c-.3,1.4-1,2.6-1.9,3.5l4.1,3.7c1.3-1,2.3-2.5,2.7-4.3Z"/>
        </g>
        <g>
          <path class="cls-13" d="M197.1,216c-10.8,21.1,30.6,29.1,40.9,30.8,1.4.2,2.9-.1,4.1-1,.8-.5,1.3-1.2,1.7-2l-45.6-28.7c-.8.5-1.2.9-1.2.9Z"/>
          <path class="cls-6" d="M242.9,237.5l-3-3.2c-1-1.1-2.1-2.1-3.3-3.1-24.6-20.5-35.2-17.9-38.4-16.1l45.6,28.7c1-2,.8-4.6-.9-6.3Z"/>
        </g>
        <path class="cls-2" d="M195.1,223.9c1.5,5.2,7.4,10.9,25.2,13.2,1.9.2,3.8-.2,5.3-1.3,2.5-1.9,4.1-6-5.7-14.1-5.8-4.8-10.5-7.1-14.1-8.1-6.4-1.8-12.5,3.9-10.7,10.3Z"/>
        <g>
          <path class="cls-8" d="M331.9,228.4l.8,3.1.4,14.7c0,0,.1,0,.2.1,2.1,1,4.6.4,6-1.4l5.1-6.6-12.5-10Z"/>
          <path class="cls-6" d="M331.9,228.4l-2.4-1.9,1.1,15.9c.1,1.6,1.1,3.1,2.5,3.9l-.4-17.7h-.8Z"/>
        </g>
        <path class="cls-2" d="M332.2,218.2c-1.2-.9-2.9-.3-3,1.2-.3,6.5.6,20.9,13.2,19.7,8.5-.8-4-16.4-10.2-20.9Z"/>
        <path class="cls-7" d="M129.4,160.5l-18.7,3.2c-6.3,1.1-12.4,3.2-18,6.3h-.2c0,.1-.1.2-.2.2l-10.1,39.5,58.3-3.3-8.9-46.2c-.7,0-1.5.2-2.2.3Z"/>
        <path class="cls-2" d="M123.5,206h-7.4c-4.4,0-8-3.6-8-8v-1.1c0-4.4,3.6-8,8-8h7.4c4.4,0,8,3.6,8,8v1.1c0,4.4-3.6,8-8,8Z"/>
        <path class="cls-2" d="M132.5,218.1h-3.1c-.8,0-1.5-.4-2-1l-8.6-11.4c-.8-1.1-.6-2.6.5-3.4,1.1-.8,2.6-.6,3.4.5l7.9,10.4h1.9c1.4,0,2.4,1.1,2.4,2.4,0,1.3-1.1,2.4-2.4,2.4Z"/>
        <path class="cls-7" d="M152.3,206.1l125.7,1.6-31.1-32.2c-7.5-7.6-17.6-12.1-28.2-12.6l-68.1-2.8c-2.6-.1-5.3,0-7.9.3l9.7,45.6Z"/>
        <path class="cls-18" d="M201.5,226.5h-9.4c-2.3,0-4.1-1.8-4.1-4.1v-.5c0-2.3,1.8-4.1,4.1-4.1h9.4c2.3,0,4.1,1.8,4.1,4.1v.5c0,2.3-1.8,4.1-4.1,4.1Z"/>
        <path class="cls-18" d="M331,226.5h-5.1c-1.1,0-2.1-.9-2.1-2.1v-.3c0-1.1.9-2.1,2.1-2.1h5.1c1.1,0,2.1.9,2.1,2.1v.3c0,1.1-.9,2.1-2.1,2.1Z"/>
        <path class="cls-18" d="M118.3,196.2h-4.2c-.9,0-1.7-.7-1.7-1.7v-.2c0-.9.7-1.7,1.7-1.7h4.2c.9,0,1.7.7,1.7,1.7v.2c0,.9-.7,1.7-1.7,1.7Z"/>
        <path class="cls-18" d="M124.6,196.2h-.9c-.9,0-1.7-.7-1.7-1.7v-.2c0-.9.7-1.7,1.7-1.7h.9c.9,0,1.7.7,1.7,1.7v.2c0,.9-.7,1.7-1.7,1.7Z"/>
        <path class="cls-18" d="M282.4,202.9h-.3c-1.1,0-2.1-.9-2.1-2.1v-.3c0-1.1.9-2.1,2.1-2.1h.3c1.1,0,2.1.9,2.1,2.1v.3c0,1.1-.9,2.1-2.1,2.1Z"/>
        <path class="cls-10" d="M135.7,246.4h0l-64.1-1.2c-.7,0-1.2-.6-1.2-1.2s.6-1.2,1.2-1.2l64.1,1.2c.7,0,1.2.6,1.2,1.2,0,.7-.6,1.2-1.2,1.2Z"/>
        <path class="cls-1" d="M88.5,167.6c-4.4,2.5-8.6,5.4-12.5,8.8l-11.4,22.1c-3.7,7.7-1,11.4,1.8,11.4h9.9c0,.1,12.2-42.2,12.2-42.2Z"/>
        <g>
          <path class="cls-18" d="M43,232.2c-.9,0-1.7-.6-2-1.5-.3-1.1.3-2.2,1.4-2.5.9-.2,1.8-.4,2.8-.4,1.2,0,2.1.9,2.1,2,0,1.1-.9,2.1-2,2.1-.6,0-1.2.1-1.8.3-.2,0-.4,0-.5,0Z"/>
          <path class="cls-18" d="M62.8,244c-.6,0-1.2-.3-1.6-.8-3.8-5-7.6-8.6-11.2-10.3-1-.5-1.5-1.7-1-2.7.5-1,1.7-1.5,2.7-1,4.2,2,8.6,6,12.8,11.5.7.9.5,2.2-.4,2.9-.4.3-.8.4-1.2.4Z"/>
        </g>
        <path class="cls-10" d="M131.7,295c0,0-.2,0-.3,0l-51-2.8c-.7,0-1.2-.6-1.2-1.3,0-.7.6-1.2,1.3-1.2l51,2.8c.8,0,1.5-.2,2-.8.6-.5.9-1.2.9-2v-60l10.4-23.6c.3-.6,1-.9,1.6-.6.6.3.9,1,.6,1.6l-10.2,23.1v59.5c0,1.4-.6,2.8-1.6,3.8-1,.9-2.2,1.4-3.6,1.4Z"/>
        <path class="cls-10" d="M322.6,300h-64.6c-.7,0-1.2-.5-1.2-1.2s.5-1.2,1.2-1.2h64.6c.7,0,1.2.5,1.2,1.2,0,.7-.5,1.2-1.2,1.2Z"/>
        <path class="cls-10" d="M234.5,251.1c-17.3,0-32.7-4.7-32.9-4.8-.6-.2-1-.9-.8-1.5.2-.6.9-1,1.5-.8.2,0,21.6,6.6,42,4.1.7,0,1.3.4,1.4,1.1,0,.7-.4,1.3-1.1,1.4-3.4.4-6.8.6-10.1.6Z"/>
        <path class="cls-1" d="M242.4,254.2l5.5,13.4c1.1,2.6,3.6,4.4,6.5,4.4h68.8c3.3,0,6.2-2.3,6.9-5.5l3.1-14.4c.4-2,0-4.1-1.3-5.7h0c-1.2-1.5-2.9-2.5-4.9-2.7l-21.1-2.1c-1.3-.1-2.6,0-3.7.6l-7.1,3.4c-1.8.9-4,.9-5.8.1l-8.3-3.6c-1.1-.5-2.3-.7-3.4-.6l-28.4,2.6c-1.2.1-2.3.5-3.3,1.1l-.8.5c-2.8,1.8-3.9,5.4-2.6,8.5Z"/>
        <g>
          <g class="cls-23">
            <g>
              <rect class="cls-2" x="193.8" y="238" width="101" height=".8" transform="translate(-87.7 317.6) rotate(-57.7)"/>
              <rect class="cls-2" x="200.6" y="238" width="101" height=".8" transform="translate(-84.6 323.3) rotate(-57.7)"/>
              <rect class="cls-2" x="207.3" y="238" width="101" height=".8" transform="translate(-81.5 329) rotate(-57.7)"/>
              <rect class="cls-2" x="214" y="238" width="101" height=".8" transform="translate(-78.4 334.7) rotate(-57.7)"/>
              <rect class="cls-2" x="220.7" y="238" width="101" height=".8" transform="translate(-75.2 340.4) rotate(-57.7)"/>
              <rect class="cls-2" x="227.5" y="238" width="101" height=".8" transform="translate(-72 346.3) rotate(-57.8)"/>
              <rect class="cls-2" x="234.2" y="238" width="101" height=".8" transform="translate(-68.9 352) rotate(-57.8)"/>
              <rect class="cls-2" x="240.9" y="238" width="101" height=".8" transform="translate(-65.7 357.7) rotate(-57.8)"/>
              <rect class="cls-2" x="247.7" y="238" width="101" height=".8" transform="translate(-62.6 363.4) rotate(-57.8)"/>
              <rect class="cls-2" x="254.4" y="238" width="101" height=".8" transform="translate(-59.4 369.1) rotate(-57.8)"/>
              <rect class="cls-2" x="261.1" y="238" width="101" height=".8" transform="translate(-56.3 374.8) rotate(-57.8)"/>
              <rect class="cls-2" x="267.8" y="238" width="101" height=".8" transform="translate(-53.2 380.4) rotate(-57.8)"/>
              <rect class="cls-2" x="274.6" y="238" width="101" height=".8" transform="translate(-50 386.2) rotate(-57.8)"/>
              <rect class="cls-2" x="281.3" y="238" width="101" height=".8" transform="translate(-46.9 391.8) rotate(-57.8)"/>
              <rect class="cls-2" x="288" y="238" width="101" height=".8" transform="translate(-43.8 397.5) rotate(-57.8)"/>
              <rect class="cls-2" x="294.7" y="238" width="101" height=".8" transform="translate(-40.6 403.2) rotate(-57.8)"/>
            </g>
          </g>
          <g class="cls-21">
            <g>
              <rect class="cls-2" x="334.7" y="191.1" width=".8" height="101" transform="translate(-77.2 216.3) rotate(-32.3)"/>
              <rect class="cls-2" x="327.9" y="191.1" width=".8" height="101" transform="translate(-78.3 212.7) rotate(-32.3)"/>
              <rect class="cls-2" x="321.2" y="191.1" width=".8" height="101" transform="translate(-79.3 209.1) rotate(-32.3)"/>
              <rect class="cls-2" x="314.5" y="191.1" width=".8" height="101" transform="translate(-80.3 205.5) rotate(-32.3)"/>
              <rect class="cls-2" x="307.8" y="191.1" width=".8" height="101" transform="translate(-81.4 201.9) rotate(-32.3)"/>
              <rect class="cls-2" x="301" y="191.1" width=".8" height="101" transform="translate(-82.4 198.3) rotate(-32.3)"/>
              <rect class="cls-2" x="294.3" y="191.1" width=".8" height="101" transform="translate(-83.5 194.8) rotate(-32.3)"/>
              <rect class="cls-2" x="287.6" y="191.1" width=".8" height="101" transform="translate(-84.5 191.2) rotate(-32.3)"/>
              <rect class="cls-2" x="280.9" y="191.1" width=".8" height="101" transform="translate(-85.5 187.6) rotate(-32.3)"/>
              <rect class="cls-2" x="274.1" y="191.1" width=".8" height="101" transform="translate(-86.6 183.9) rotate(-32.3)"/>
              <rect class="cls-2" x="267.4" y="191.1" width=".8" height="101" transform="translate(-87.6 180.3) rotate(-32.3)"/>
              <rect class="cls-2" x="260.7" y="191.1" width=".8" height="101" transform="translate(-88.7 176.7) rotate(-32.3)"/>
              <rect class="cls-2" x="253.9" y="191.1" width=".8" height="101" transform="translate(-89.7 173.2) rotate(-32.3)"/>
              <rect class="cls-2" x="247.2" y="191.1" width=".8" height="101" transform="translate(-90.8 169.6) rotate(-32.3)"/>
              <rect class="cls-2" x="240.5" y="191.1" width=".8" height="101" transform="translate(-91.8 166) rotate(-32.3)"/>
              <rect class="cls-2" x="233.8" y="191.1" width=".8" height="101" transform="translate(-92.8 162.4) rotate(-32.3)"/>
            </g>
          </g>
        </g>
        <g>
          <path class="cls-2" d="M297.1,245.6c1.9.8,4,.8,5.8-.1l7.1-3.4c.1,0,.3-.1.5-.2l-4.6-.5c-1.3-.1-2.6,0-3.7.6l-6.2,3,1.2.5Z"/>
          <path class="cls-2" d="M255.7,267.6l-5.5-13.4c-1.3-3.1-.2-6.6,2.6-8.5l.8-.5c1-.6,2.1-1,3.3-1.1l23.7-2.2c-1-.4-2.1-.5-3.1-.4l-28.4,2.6c-1.2.1-2.3.5-3.3,1.1l-.8.5c-2.8,1.8-3.9,5.4-2.6,8.5l5.5,13.4c1.1,2.6,3.6,4.4,6.5,4.4h7.9c-2.9,0-5.4-1.7-6.5-4.4Z"/>
        </g>
        <g>
          <g class="cls-20">
            <rect class="cls-18" x="200" y="112.1" width="16.9" height="111.7" transform="translate(-57 133) rotate(-31.4)"/>
          </g>
          <g class="cls-24">
            <rect class="cls-18" x="183.2" y="121.2" width="11.8" height="111.7" transform="translate(-64.5 124.3) rotate(-31.4)"/>
          </g>
        </g>
        <path class="cls-13" d="M248.4,300c-.6,0-1.1-.4-1.2-1l-4.4-19.6-30.8-6.3c-.7-.1-1.1-.8-1-1.4.1-.7.8-1.1,1.4-1l31.6,6.5c.5,0,.8.5.9.9l4.6,20.3c.1.7-.3,1.3-.9,1.5,0,0-.2,0-.3,0Z"/>
        <path class="cls-10" d="M323.3,300c-.2,0-.4,0-.6-.1-.6-.3-.8-1-.5-1.6l10.3-20.2c.1-.3.4-.5.7-.6l22.6-8.3c.6-.2,1.3,0,1.6.7.2.6,0,1.3-.7,1.6l-22.2,8.1-10.1,19.8c-.2.4-.6.7-1.1.7Z"/>
        <path class="cls-13" d="M333.6,279.7c-.5,0-1-.3-1.1-.8-.2-.6,0-1.3.7-1.6l22.6-8.3c.6-.2,1.3,0,1.6.7.2.6,0,1.3-.7,1.6l-22.6,8.3c-.1,0-.3,0-.4,0Z"/>
        <path class="cls-18" d="M148.6,161h-.8c-.5,0-1-.4-1-1s.4-1,1-1h.8c.5,0,1,.4,1,1s-.4,1-1,1Z"/>
        <path class="cls-18" d="M140.6,175.2c-.5,0-.9-.3-1-.8l-2.9-14.2c0-.3,0-.6.2-.8.2-.2.5-.4.8-.4h6.5c.5,0,1,.4,1,1s-.4,1-1,1h-5.3l2.7,13c.1.5-.2,1.1-.8,1.2,0,0-.1,0-.2,0Z"/>
        <path class="cls-11" d="M54.8,198.8l11-2.7c1.3-2.4,9.2-17.9,10.2-19.8,0-.2-15.2,13.8-21.2,22.5Z"/>
        <path class="cls-18" d="M315.7,232.1c-.4,0-.8-.2-1-.6l-5.8-9.1c-.4-.6-.2-1.3.4-1.7.6-.4,1.3-.2,1.7.4l5.8,9.1c.4.6.2,1.3-.4,1.7-.2.1-.4.2-.7.2Z"/>
        <path class="cls-18" d="M318.9,237.1c-.4,0-.8-.2-1-.6l-.8-1.3c-.4-.6-.2-1.3.4-1.7.6-.4,1.3-.2,1.7.4l.8,1.3c.4.6.2,1.3-.4,1.7-.2.1-.4.2-.7.2Z"/>
        <path class="cls-18" d="M142.7,247.2h-1.9c-1.1,0-2-.9-2-2s.9-2,2-2h1.9c1.1,0,2,.9,2,2s-.9,2-2,2Z"/>
        <g class="cls-22">
          <polygon class="cls-2" points="146.6 248.1 129.7 302.3 141.5 302.8 146.6 248.1"/>
        </g>
        <path class="cls-13" d="M175.9,230c-5.2,0-10.1,1.7-14.6,4.4-17.5,10.7-24.4,27.3-25.9,50.9-.4,6.7-.3,12.6.8,18.7.7,3.9,7.1,3,6.9,0,0-2-.2-4.1-.2-6.2,0-22.2,9.4-40.6,21.9-44.5,1.6-.5,3.2-.8,4.9-.8,14.8,0,26.8,20.3,26.8,45.3h0c0,2,0,7,4.7,8.7,4.9,1.8,9.7-1.3,10.7-6.4.9-4.7,1.4-9.7,1.4-14.8,0-30.5-16.7-55.2-37.2-55.2Z"/>
        <path class="cls-18" d="M200.4,289.2l-.2-9.4c0-2.3,1.7-4.1,4-4.2h.5c2.3,0,4.1,1.7,4.2,4l.2,9.4c0,2.3-1.7,4.1-4,4.2h-.5c-2.3,0-4.1-1.7-4.2-4Z"/>
        <g>
          <path class="cls-18" d="M160.7,236.4c-.7,0-1.3-.3-1.7-.9-.6-1-.3-2.2.6-2.8,1.9-1.2,3.9-2.2,5.9-2.9,1.1-.4,2.2.2,2.6,1.2.4,1.1-.2,2.2-1.2,2.6-1.7.6-3.5,1.5-5.1,2.5-.3.2-.7.3-1.1.3Z"/>
          <path class="cls-18" d="M205.5,256.9c-.8,0-1.5-.5-1.9-1.2-6.4-14.8-17.1-23.6-28.7-23.6s-2-.9-2-2,.9-2,2-2c13.3,0,25.4,9.7,32.4,26.1.4,1,0,2.2-1.1,2.7-.3.1-.5.2-.8.2Z"/>
        </g>
        <path class="cls-10" d="M72.6,253.7c-.5,0-.9-.4-1-.9l-2.2-11.1s0,0,0-.1l-1.1-16.7c-.2-2.9.6-5.8,2.2-8.3l1.3-2c.3-.5,1-.6,1.5-.3.5.3.6,1,.3,1.5l-1.3,2c-1.4,2-2,4.5-1.9,7l1,16.7,2.2,11.1c.1.6-.3,1.1-.8,1.3,0,0-.1,0-.2,0Z"/>
      </g>
      <path class="cls-18" d="M219.5,225.9c-.8-1.7-3.3-4.3-4.9-5.2-.2-.1-.2-.4,0-.5,1.7-.8,4.3-3.3,5.2-4.9.1-.2.4-.2.5,0,.8,1.7,3.3,4.3,4.9,5.2.2.1.2.4,0,.5-1.7.8-4.3,3.3-5.2,4.9-.1.2-.4.2-.5,0Z"/>
    </g>
  </g>
</svg>