<?xml version="1.0" encoding="UTF-8"?>
<svg id="Objects" xmlns="http://www.w3.org/2000/svg" version="1.1" viewBox="0 0 500 500">
  <defs>
    <style>
      .cls-1 {
        fill: #ce3225;
      }

      .cls-1, .cls-2, .cls-3, .cls-4, .cls-5, .cls-6, .cls-7, .cls-8, .cls-9, .cls-10, .cls-11, .cls-12, .cls-13, .cls-14, .cls-15, .cls-16, .cls-17, .cls-18, .cls-19, .cls-20, .cls-21, .cls-22, .cls-23, .cls-24, .cls-25, .cls-26, .cls-27, .cls-28, .cls-29, .cls-30, .cls-31, .cls-32, .cls-33, .cls-34 {
        stroke-width: 0px;
      }

      .cls-2 {
        fill: #ea5052;
      }

      .cls-3 {
        fill: #0dcff7;
      }

      .cls-4 {
        fill: #ff9f9f;
      }

      .cls-5 {
        fill: #ee534f;
      }

      .cls-6 {
        fill: #698fc1;
      }

      .cls-7 {
        fill: #49657a;
      }

      .cls-8 {
        fill: #88b9e7;
      }

      .cls-9 {
        fill: #abecef;
      }

      .cls-10 {
        fill: #95b6c9;
      }

      .cls-11 {
        fill: #1f3950;
      }

      .cls-12 {
        fill: #aefff9;
      }

      .cls-13 {
        fill: #e8612d;
      }

      .cls-14 {
        fill: #304b62;
      }

      .cls-15 {
        fill: #173246;
      }

      .cls-16 {
        fill: #f9b354;
      }

      .cls-17 {
        fill: #ff5f5f;
      }

      .cls-18 {
        fill: #fcfcac;
      }

      .cls-19 {
        fill: #6589a0;
      }

      .cls-20 {
        fill: #4ce595;
      }

      .cls-21 {
        fill: #203850;
      }

      .cls-22 {
        fill: #fff3c2;
      }

      .cls-23 {
        fill: #37526d;
      }

      .cls-24 {
        fill: #ad1e17;
      }

      .cls-25 {
        fill: #aad5f9;
      }

      .cls-26 {
        fill: #52f3f1;
      }

      .cls-35 {
        stroke: #abecef;
      }

      .cls-35, .cls-36 {
        fill: none;
        stroke-miterlimit: 10;
        stroke-width: 2px;
      }

      .cls-27 {
        fill: #e5b52e;
      }

      .cls-36 {
        stroke: #173246;
      }

      .cls-28 {
        fill: #2cb78c;
      }

      .cls-29 {
        fill: #628da8;
      }

      .cls-30 {
        fill: #f4dd69;
      }

      .cls-31 {
        fill: #9dcdf4;
      }

      .cls-32 {
        fill: #406784;
      }

      .cls-33 {
        fill: #e14143;
      }

      .cls-34 {
        fill: #65efa6;
      }
    </style>
  </defs>
  <g>
    <path class="cls-9" d="M239.29,406.66l169.08-97.62c38.26-22.09,38.26-57.91,0-80l-19.86-11.46c-38.26-22.09-100.3-22.09-138.56,0l-168.82,97.47c-47.83,27.61-51.2,70.51-7.52,95.81,43.67,25.3,117.85,23.42,165.68-4.19Z"/>
    <path class="cls-35" d="M408.52,247.02l41.25,23.74c1.56.9,1.56,3.14,0,4.04l-28.99,16.74"/>
    <g>
      <polygon class="cls-6" points="83.63 163.51 128.31 137.71 128.31 283.11 83.63 308.91 83.63 163.51"/>
      <polygon class="cls-11" points="87.63 165.81 124.31 144.64 124.31 280.8 87.63 301.98 87.63 165.81"/>
      <polygon class="cls-8" points="83.63 163.5 83.63 308.9 63.32 297.17 63.32 151.77 83.63 163.5"/>
      <polygon class="cls-7" points="120.19 151.77 120.19 208.06 91.75 224.47 91.75 168.19 118.16 152.94 120.19 151.77"/>
      <polygon class="cls-20" points="118.17 183.42 118.17 206.89 91.75 222.13 91.75 168.19 109.43 157.98 118.16 152.94 118.16 174.95 118.17 183.42"/>
      <polygon class="cls-34" points="118.16 152.94 118.16 155.81 91.75 182.22 91.75 175.66 109.43 157.98 118.16 152.94"/>
      <polygon class="cls-34" points="118.17 183.42 118.17 188.82 91.75 215.24 91.75 209.84 118.17 183.42"/>
      <polygon class="cls-34" points="118.16 163.83 118.16 174.95 91.75 201.36 91.75 190.23 118.16 163.83"/>
      <polygon class="cls-18" points="108 163.51 98.76 180.66 107.21 177.12 103.07 190.73 113.77 171.44 104.71 174.79 108 163.51"/>
      <polygon class="cls-31" points="128.31 137.71 108 125.98 63.32 151.78 83.63 163.51 128.31 137.71"/>
      <polygon class="cls-28" points="95.82 198.68 115.11 187.54 115.11 189.88 95.82 201.03 95.82 198.68"/>
      <polygon class="cls-28" points="95.82 203.38 115.11 192.23 115.11 194.57 95.82 205.72 95.82 203.38"/>
      <polygon class="cls-28" points="95.82 208.07 115.11 196.93 115.11 199.27 95.82 210.41 95.82 208.07"/>
      <polygon class="cls-25" points="83.63 176.13 83.63 189.21 63.32 168.9 63.32 155.82 83.63 176.13"/>
      <polygon class="cls-25" points="83.63 217.54 83.63 230.61 63.32 210.3 63.32 197.23 83.63 217.54"/>
      <polygon class="cls-25" points="83.63 199.28 83.63 205.49 63.32 185.18 63.32 178.96 83.63 199.28"/>
    </g>
    <g>
      <path class="cls-36" d="M372.03,262.08l36.49-21.07,41.25,23.74c1.56.9,1.56,3.14,0,4.04l-28.99,16.74"/>
      <g>
        <circle class="cls-11" cx="415.22" cy="289.04" r="7.59"/>
        <path class="cls-14" d="M413.46,282.91c3.36,1.94,6.09,6.67,6.09,10.55s-2.73,5.46-6.09,3.52c-3.36-1.94-6.09-6.67-6.09-10.55s2.73-5.46,6.09-3.52Z"/>
        <polygon class="cls-14" points="409.07 282.53 407.18 283.62 415.8 298.54 417.75 297.42 409.07 282.53"/>
        <path class="cls-32" d="M411.43,284.08c3.36,1.94,6.09,6.67,6.09,10.55s-2.73,5.46-6.09,3.52-6.09-6.67-6.09-10.55,2.73-5.46,6.09-3.52Z"/>
        <g>
          <path class="cls-10" d="M408.84,287.28l-6.4,3.69c-.95.55-1.73,1.9-1.73,3v.69c0,.58.22.97.56,1.14h0s.42.24.42.24c.03.02.06.04.1.06v-.2c.19-.02.42-.1.66-.24l6.39-3.69.57-4.37-.56-.32ZM402.98,293.76c0-.7.5-1.56,1.12-1.92.11-.06.21-.1.31-.12.27.07.44.35.44.76,0,.71-.5,1.57-1.11,1.92-.11.06-.22.11-.31.13-.27-.08-.45-.35-.45-.77Z"/>
          <path class="cls-19" d="M403,291.29c-.95.55-1.73,1.9-1.73,3v.69c0,.49.15.85.41,1.06.03.02.06.04.1.06.31.19.74.16,1.22-.12l6.39-3.69v-4.69s-6.39,3.69-6.39,3.69ZM404.1,291.84c.11-.06.21-.1.31-.12.27.07.44.35.44.76,0,.71-.5,1.57-1.11,1.92-.11.06-.22.11-.31.13-.27-.08-.45-.35-.45-.77,0-.7.5-1.56,1.12-1.92Z"/>
          <path class="cls-32" d="M405.2,292.48c0,.71-.49,1.57-1.1,1.92-.25.15-.49.19-.67.13.09-.02.2-.07.31-.13.61-.35,1.11-1.21,1.11-1.92,0-.41-.17-.69-.44-.76.46-.12.79.18.79.76Z"/>
        </g>
        <g>
          <path class="cls-10" d="M413.46,289.94l-6.4,3.69c-.95.55-1.73,1.9-1.73,3v.69c0,.58.22.97.56,1.14h-.01s.42.24.42.24c.03.02.06.04.1.06v-.2c.19-.02.42-.1.66-.24l6.39-3.69.57-4.37-.56-.32ZM407.6,296.42c0-.7.5-1.56,1.12-1.92.11-.06.21-.1.31-.12.27.07.44.35.44.76,0,.71-.5,1.57-1.11,1.92-.11.06-.22.11-.31.13-.27-.08-.45-.35-.45-.77Z"/>
          <path class="cls-19" d="M407.62,293.95c-.95.55-1.73,1.9-1.73,3v.69c0,.49.15.85.41,1.06.03.02.06.04.1.06.31.19.74.16,1.22-.12l6.39-3.69v-4.69s-6.39,3.69-6.39,3.69ZM408.72,294.5c.11-.06.21-.1.31-.12.27.07.44.35.44.76,0,.71-.5,1.57-1.11,1.92-.11.06-.22.11-.31.13-.27-.08-.45-.35-.45-.77,0-.7.5-1.56,1.12-1.92Z"/>
          <path class="cls-32" d="M409.82,295.14c0,.71-.49,1.57-1.1,1.92-.25.15-.49.19-.67.13.09-.02.2-.07.31-.13.61-.35,1.11-1.21,1.11-1.92,0-.41-.17-.69-.44-.76.46-.12.79.18.79.76Z"/>
        </g>
      </g>
    </g>
    <g>
      <path class="cls-5" d="M117.66,238.64l.14.55c0,.75-.36,1.76-.96,2.87-1.89,3.54-6.07,8.01-7.57,7.64-1.34-.33-2.16-2.28-2.58-4.69v-.03c-.2-1.1-.31-2.3-.35-3.49-.13-3.79,1.56-12.63,6.82-14.98,1.2-.53,2.28-.11,3.12.7.7.68,1.24,1.62,1.52,2.51.88,2.66-.02,8.78-.14,8.92Z"/>
      <path class="cls-33" d="M116.84,242.06c-1.89,3.54-6.07,8.01-7.57,7.64-1.34-.33-2.16-2.28-2.58-4.69v-.03c-.2-1.1-.31-2.3-.35-3.49-.13-3.79,1.56-12.63,6.82-14.98,1.2-.53,2.28-.11,3.12.7l-.72,1.63c-3.68,1.57-4.67,7.25-4.33,11.57.33,4.32,3.5,3.88,5.61,1.65Z"/>
      <path class="cls-21" d="M117.8,229.73c-1.33-1.41-4.63-1.48-7.41,2.34s-3.69,10.37-3.7,12.91c-.2-1.1-.31-2.3-.35-3.49-.13-3.79,1.55-12.63,6.81-14.98,2.2-.98,4.01,1.27,4.64,3.22Z"/>
      <polygon class="cls-33" points="398.44 263.18 361.88 242.07 382.19 230.34 406.56 244.42 398.44 263.18"/>
      <g>
        <path class="cls-15" d="M383.03,258.17l5.25-10.43-12.49-7.23h0c-3.97-2.28-9.26-2.02-15.07,1.33-12.34,7.12-22.34,25.5-22.34,41.04,0,8.14,2.75,13.88,7.13,16.49h0s.18.11.18.11c0,0,.02.01.03.01l12.81,7.39,5.54-11c10.48-8.03,18.58-23.85,18.99-37.72Z"/>
        <path class="cls-11" d="M396.05,264.58c0,13.4-7.44,28.91-17.4,37.49-.02.01-.03.03-.04.04-1.58,1.35-3.22,2.54-4.9,3.51-12.34,7.13-22.35.3-22.34-15.24,0-11.74,5.71-25.11,13.82-34.01.02-.02.05-.04.07-.07,2.61-2.85,5.46-5.24,8.45-6.96,12.34-7.12,22.34-.3,22.34,15.24Z"/>
        <path class="cls-14" d="M373.71,258.72c7.85-4.53,14.22.19,14.22,10.55s-6.37,22.44-14.22,26.97c-7.85,4.53-14.22-.19-14.22-10.55s6.37-22.44,14.22-26.97Z"/>
        <path class="cls-29" d="M379.8,273.96c0,5.18-2.73,10.96-6.09,12.9-1.48.85-2.83.82-3.88.08-1.35-.93-2.21-3.03-2.21-5.94,0-5.18,2.72-10.96,6.09-12.9.91-.53,1.78-.72,2.55-.61,0,0,0-.01,0,0,2.08.29,3.53,2.7,3.53,6.47Z"/>
        <path class="cls-32" d="M378.47,273.43c0,5.18-2.73,10.96-6.09,12.9-.91.52-1.77.72-2.55.61-1.35-.93-2.21-3.03-2.21-5.94,0-5.18,2.72-10.96,6.09-12.9.91-.53,1.78-.72,2.55-.61,0,0,0-.01,0,0,1.34.94,2.2,3.04,2.2,5.94Z"/>
        <path class="cls-14" d="M396.05,264.58c0,13.4-7.44,28.91-17.4,37.49,5.9-6.42,12.01-17.17,14.17-27.42,1.89-8.96,1.18-21.82-6.51-25.07-7.63-3.23-17.84,3.6-21.05,6.72,2.61-2.85,5.46-5.24,8.45-6.96,12.34-7.12,22.34-.3,22.34,15.24Z"/>
      </g>
      <polygon class="cls-33" points="235.96 356.99 199.4 335.88 219.71 324.15 256.27 345.26 235.96 356.99"/>
      <g>
        <path class="cls-15" d="M220.91,351.74l5.25-10.43-12.49-7.23h0c-3.97-2.28-9.26-2.02-15.07,1.33-12.34,7.12-22.34,25.5-22.34,41.04,0,8.14,2.74,13.88,7.13,16.49h0s.18.11.18.11c0,0,.02.01.03.01l12.81,7.39,5.54-11c10.48-8.03,18.58-23.85,18.99-37.72Z"/>
        <path class="cls-11" d="M233.93,358.15c0,13.4-7.44,28.91-17.4,37.49-.02.01-.03.03-.04.04-1.58,1.35-3.22,2.54-4.9,3.51-12.34,7.13-22.35.3-22.34-15.24,0-11.74,5.71-25.11,13.82-34.01.02-.02.05-.04.07-.07,2.61-2.85,5.46-5.24,8.45-6.96,12.34-7.12,22.34-.3,22.34,15.24Z"/>
        <path class="cls-14" d="M211.59,352.29c7.85-4.53,14.22.19,14.22,10.55s-6.37,22.44-14.22,26.97c-7.85,4.53-14.22-.19-14.22-10.55s6.37-22.44,14.22-26.97Z"/>
        <path class="cls-29" d="M217.68,367.53c0,5.18-2.73,10.96-6.09,12.9-1.48.85-2.83.82-3.88.08-1.35-.93-2.21-3.03-2.21-5.94,0-5.18,2.72-10.96,6.09-12.9.91-.53,1.78-.72,2.55-.61,0,0,0-.01,0,0,2.08.29,3.53,2.7,3.53,6.47Z"/>
        <path class="cls-32" d="M216.35,367c0,5.18-2.73,10.96-6.09,12.9-.91.52-1.77.72-2.55.61-1.35-.93-2.21-3.03-2.21-5.94,0-5.18,2.72-10.96,6.09-12.9.91-.53,1.78-.72,2.55-.61,0,0,0-.01,0,0,1.34.94,2.2,3.04,2.2,5.94Z"/>
        <path class="cls-14" d="M233.93,358.15c0,13.4-7.44,28.91-17.4,37.49,5.9-6.42,12.01-17.17,14.17-27.42,1.89-8.96,1.18-21.82-6.51-25.07-7.63-3.23-17.84,3.6-21.05,6.72,2.61-2.85,5.46-5.24,8.45-6.96,12.34-7.12,22.34-.3,22.34,15.24Z"/>
      </g>
      <path class="cls-17" d="M420.79,229.8v2.89c0,10.88-5.81,20.93-15.23,26.37l-7.12,4.11c0-18.13-11.82-26-26.4-17.58-13.44,7.76-24.53,26.65-26.18,43.75-.15,1.46-.22,2.9-.22,4.32l-109.68,63.32c0-1.22-.05-2.39-.16-3.52-1.44-15.6-12.64-21.92-26.24-14.07-.84.49-1.68,1.02-2.5,1.59-6.29,4.37-11.94,11.12-16.17,18.81-2.77,5.04-4.92,10.49-6.25,15.95-.54,2.19-.93,4.38-1.18,6.55-.4,3.52-2.64,6.56-5.82,8.13-27.84,13.67-60.82,12.68-87.92-2.96l-15.83-9.13c-16.59-9.59-26.81-27.29-26.82-46.45v-7.56c0-2.72.18-5.42.53-8.08.22-1.68.5-3.34.86-4.98h0c1.52-7.1,4.27-13.85,8.09-19.95.78-1.25,1.61-2.47,2.49-3.67,3.82-5.23,8.47-9.9,13.85-13.78l39.17-28.28,40.62-42.21c15.62-12.97,43.93-32.33,71.18-47.38,18.96-10.48,40.78-16.49,61.38-16.8h.01c6.37-.1,12.62.34,18.63,1.37.7.12,1.4.24,2.09.38,6.72,1.31,12.31,4.74,17.32,7.67,5.01,2.94,80.13,46.34,80.13,46.34.55.32,1.76,1.07,2.99,1.98,1.24.91,2.52,1.98,3.21,2.93,2.91,3.36,5.3,7.1,7.1,11.09,2.66,5.88,4.07,12.3,4.07,18.85Z"/>
      <path class="cls-4" d="M91.76,268.54s18.99-16.64,21.78-17.42l81.8,51.92s-21.76-7.87-46.71-22.28c-24.95-14.4-32.93-25.14-35.09-26.04-2.91-1.21-21.78,13.81-21.78,13.81Z"/>
      <path class="cls-2" d="M242.8,302.3c-.29-.03-4.23,3.2-7.84,4.26-3.61,1.06-2.89-3.39,2.67-22.28,5.56-18.89,8.3-29.38,16.61-35.18s69.79-40.81,77.18-45.73c7.4-4.92,17.63-7.13,26.4-3.52,8.77,3.61,14.42,6.77,14.22,14.07-.21,7.3,2.11,11.68-12.17,19.93-14.29,8.25-117.06,68.44-117.06,68.44Z"/>
      <path class="cls-2" d="M420.79,229.8v2.89c0,10.88-5.81,20.93-15.23,26.37l-7.12,4.11c0-18.13-11.82-26-26.4-17.58-4.69,2.71-9.09,6.77-12.91,11.64l-9.43,1.25c11.97-17.57,27.16-25.41,39.07-22.28,11.91,3.13,13.73,14.07,13.73,14.07,0,0,7.13-2.5,12.19-8.21,5.06-5.7,6.17-21.01,2.03-31.11,2.66,5.88,4.07,12.3,4.07,18.85Z"/>
      <path class="cls-2" d="M184.64,375.74c-.54,2.19-.93,4.38-1.18,6.55-.4,3.52-2.64,6.56-5.82,8.13-27.84,13.67-60.82,12.68-87.92-2.96l-15.83-9.13c-16.59-9.59-26.81-27.29-26.82-46.45v-1.92c.9,5.96,3.96,12.7,5.82,15.46,5.52,8.17,22.34,31.12,63.24,40.88,34.38,8.2,54.57-2.98,68.51-10.56Z"/>
      <path class="cls-2" d="M110.03,251.45s-26.52,21.71-33.57,30.49c-7.05,8.77-26.42,24.63,13.26,46.9,28.85,16.19,48.87,16.55,69.06,9.38,20.18-7.17,48.74-25.79,48.74-25.79,0,0-18.21,15.94-26.41,22.76-8.2,6.82-40.02,35.45-71.08,28.24-31.06-7.21-61.82-25.45-57.62-51.01,4.2-25.55,26.46-40.51,57.62-60.98Z"/>
      <path class="cls-23" d="M173,362.84c-7.51,9.67-16.74,15.8-40.1,13.45-24.59-2.46-41.5-12.64-55.98-21.3-12.26-7.32-16.07-12.34-21.72-20.29-5.65-7.95-7.6-18.46-7.6-18.46.22-1.68.5-3.34.86-4.98h0c1.52-7.1,4.27-13.85,8.09-19.95.78-1.25,1.61-2.47,2.49-3.67-.82,3.99-.8,6.62-.74,11.33.07,6.42,1.88,16.63,1.28,23.26-.63,6.87,4.02,14.73,22.02,25.37,21.39,12.64,29.65,10.7,37.89,8.21,4.47-1.36,9.46-1.99,14.25-2.44,5.96-.54,11.63-.8,15.7-1.78,8.89-2.15,13.46-8.31,20.34-7.51,10.08,1.17,7.77,12.9,3.22,18.76Z"/>
      <path class="cls-21" d="M133.75,353.38c-5.4.45-14.57,3.82-18.51,5.21-3.94,1.38-7.56,2.55-19.42-1.61-11.86-4.16-25.18-13.65-31.47-19.35-6.29-5.7-5.37-9.27-4.77-15.4-.63,6.87,4.02,14.73,22.02,25.37,21.39,12.64,29.65,10.7,37.89,8.21,4.47-1.36,9.46-1.99,14.25-2.44h.01Z"/>
      <path class="cls-14" d="M242.05,254.96l-23.82,51.92c-4.7,8.15-54.59-17.12-84.39-38.12-14.35-10.12-24.05-19.25-21.78-23.18,11.78-15.15,25.45-29.14,40.62-42.21,1.54,1.57,3.13,3.11,4.78,4.61,3.83,3.55,7.96,6.95,12.37,10.24,19.2,14.32,43.72,26.37,72.22,36.74Z"/>
      <path class="cls-14" d="M361.89,232.68c-3.27,1.9-17.41,10.06-34.61,19.99,0,.01-.02.01-.03.02-2.21,1.28-4.47,2.58-6.77,3.91,0,.01-.02.01-.03.01-8.98,5.19-18.48,10.67-27.51,15.87-.01.01-.02.02-.03.02-2.23,1.29-4.44,2.56-6.6,3.81-.02.01-.05.03-.08.04-18.07,10.45-33.03,19.08-36.05,20.83-8.12,4.69-13.68,7.89-12.19,2.34.9-3.31,5.07-18.58,8.29-30.33,1.86-6.78,5.64-12.81,10.83-17.39.04-.05.09-.09.14-.13.78-.68,1.6-1.34,2.44-1.95,1.04-.77,2.13-1.48,3.26-2.13,7.53-4.36,17.59-10.16,27.85-16.08.26-.15.52-.3.78-.46,2.35-1.35,4.7-2.71,7.03-4.05,5.36-3.1,10.63-6.14,15.46-8.93,1.79-1.03,3.51-2.02,5.16-2.98,7.52-4.34,13.47-7.77,16.25-9.38,2.41-1.39,4.61-2.35,6.67-2.95,8.35-2.44,14.3,1,21.77,5.33,5.23,2.99,4.06,21.17-2.03,24.59Z"/>
      <path class="cls-21" d="M286.23,276.35c-18.07,10.45-33.03,19.08-36.05,20.83-8.12,4.69-13.68,7.89-12.19,2.34.9-3.31,5.07-18.58,8.29-30.33,1.86-6.78,5.64-12.81,10.83-17.39-4.17,4.07-7.03,11.04-11,25.68-4.73,17.46-7.97,24.2,11.31,13.83,18.08-9.71,27.68-14.41,28.81-14.96Z"/>
      <path class="cls-21" d="M168.93,346.43c-6.84.26-10.99,8.31-24.37,9.38-14.69,1.17-20.75,1.31-24.81,4.69-5.46,4.55-2.32,7.78,4.5,10.55,6.82,2.77,25.5,5.59,37.09-1.17,11.59-6.76,19.03-23.89,7.59-23.45Z"/>
      <path class="cls-33" d="M152.65,390.26c-.92,1.41-3.02,2.04-5.75,2.34-2.15.23-4.69.26-7.34.3-6.02.1-11.68-.61-13.14-2.71-1.46-2.1-5.17-7.75-2.25-8.14.86-.12,1.73-.1,2.74-.01,2.41.2,5.62.76,11.5.7,2.74-.03,5.29.19,11.51-.33,5-.42,4.15,5.66,2.73,7.85Z"/>
      <path class="cls-21" d="M53.17,324.15c-1.22-.71-4.25-7.13-4.71-12.89h0c1.52-7.1,4.27-13.85,8.09-19.95-1.3,5.05,0,14.46.68,21.11.67,6.65-2.84,12.43-4.06,11.73Z"/>
      <path class="cls-21" d="M101.92,376.82c-2.24,2.25-4.33,4.5-7.6,4.56-3.17.06-13.49-4.93-20.49-9.42-4.2-2.69-8.14-5.56-10.73-8.32-1.47-1.56-2.51-3.09-2.92-4.53-.55-1.93-1.21-7-.68-9.39.39-1.76,1.74-.87,2.53-.28,1.1.83,2.59,2.21,5.73,4.55.04.03.07.06.11.09,2.21,1.64,5.21,3.76,9.42,6.48,11.75,7.59,17.26,9.97,21.98,12.08,3.34,1.5,4.42,2.42,2.65,4.18Z"/>
      <path class="cls-5" d="M250.56,302.86c-1.69,8.05-10.61,9.75-17.29,9.55-3.54-.1-6.45-.75-7.34-1.26-2.58-1.49-1.39-4.58,0-6.37,2.34-3.03,12.84-9.11,19.43-9.32,3.86-.13,6.39,1.75,5.21,7.4Z"/>
      <path class="cls-33" d="M250.56,302.86c-1.69,8.05-10.61,9.75-17.29,9.55-3.54-.1-6.45-.75-7.34-1.26-2.58-1.49-1.39-4.58,0-6.37-1.3,2.46,5.58,3.98,11.71,1.78,6.13-2.21,10.7-6.94,7.72-11.1,3.86-.13,6.39,1.75,5.21,7.4Z"/>
      <path class="cls-21" d="M250.56,302.86c-1.69,8.05-10.61,9.75-17.29,9.55,6.65-.19,11.95-4.02,13.95-8.2,1.99-4.17.48-8.22-1.87-8.75,3.86-.13,6.39,1.75,5.21,7.4Z"/>
      <path class="cls-14" d="M376.1,191.64c-12.68-2.06-15.13-4.04-21.55-7.75-6.41-3.7-49.55-28.6-60.58-34.98-11.04-6.37-11.98-7.48-6.46-7.69h0c3.25-.05,6.96.13,10.61.46,6.07.55,11.94,2.45,17.22,5.5,14.49,8.37,34.82,20.11,53.49,30.89,30.73,17.74,19.95,15.63,7.27,13.57Z"/>
      <path class="cls-1" d="M420.77,228.61c-3.4,2.9-5.73-4.36-6.08-10-.34-5.63.04-6.65,2.03-7.66,1.99-1.02,4.19,4.61,5.08,7.66.46,1.58.7,3.03.75,4.32.11,2.69-.6,4.67-1.78,5.68Z"/>
      <path class="cls-3" d="M171.57,354.63c-1.11,3.16-4.19,6.94-6.7,9.39-5.28,5.16-14.21,9.26-20.31,5.86-3.82-2.12-4.5-5.56-2.56-8.21.16-.22.33-.43.53-.64,1.69-1.78,5.11-2.71,8.13-3.68,4.67-1.49,8.25-3.44,11.14-5.06h0c2.36-1.31,4.27-2.41,5.96-2.85,3.97-1.02,5.03,1.7,3.8,5.19Z"/>
      <path class="cls-3" d="M133.29,369.35c-3.4.59-9.33.28-11.07-2.83-.81-1.44-.06-3.14,1.66-4.37l.02-.02c1.27-.89,3.05-1.53,5.13-1.63,2.34-.11,4.48.19,6.27,1.22.74.42,1.42.96,2.03,1.64,2.79,3.11-.32,5.35-4.04,5.99Z"/>
      <path class="cls-3" d="M55.48,312.05c-.09,1.09-.3,2.26-.65,3.16-.69,1.74-1.94,2.46-4.01-.44-3.13-4.39-.97-13.08,2.07-12.44.39.08.73.34,1.02.71h0c1.46,1.86,1.76,6.75,1.56,9.01Z"/>
      <path class="cls-21" d="M110.85,353.61c-.67.77-2.04.23-5.37-.32-2.82-.46-16.71-6.18-23.77-10.49-1.13-.69-2.28-1.43-3.43-2.22l-.02-.02c-6.02-4.11-11.86-9.17-13.28-11.47-1.42-2.31-.22-2.66,1.39-3.34,1.84-.79,3.84-1.19,7.35.49,1.16.55,5.1,2.67,9.91,5.35h0c.15.09.31.18.48.27,9.6,5.34,22.34,12.71,23.59,14.34,1.92,2.48,3.8,6.64,3.14,7.41Z"/>
      <path class="cls-2" d="M322.55,302.3l-86.75,51.16c-1.44-15.6-12.64-21.92-26.24-14.07-.84.49-1.68,1.02-2.5,1.59l3.87-8.76c12.44-6.55,22.74.78,25.03,4.82,2.29,4.05,3.01,9.78,3.01,9.78l83.58-44.52Z"/>
      <path class="cls-2" d="M309.07,265.52s3.21,1.21,2.83,9.89c-.39,8.68-2.83,29.98-2.83,29.98,0,0,5.11-23.28,6.09-30.49.98-7.2-3.05-11.72-3.05-11.72l-3.05,2.34Z"/>
      <path class="cls-4" d="M204.11,336.11c-12.83,6.54-20.12,19.17-22.98,33.49-2.03-13.39,11.1-32.55,22.98-33.49Z"/>
      <path class="cls-4" d="M361.24,246.53c-12.11,7.79-18.1,21.08-19.53,35.62-3.36-13.12,7.79-33.49,19.53-35.62Z"/>
      <path class="cls-4" d="M262.36,294.84l46.72-26.97s1.52,2.15,1.21,3.52l-47.93,23.45Z"/>
      <path class="cls-4" d="M314.86,264.66l42.18-24.93-40.79,28.14s-.21-2.35-1.39-3.21Z"/>
      <path class="cls-4" d="M333.45,156.47s46.08,26.41,50.77,29.31c4.69,2.91,12.8,8.88,10.9,9.38-1.9.5-17.62,0-17.62,0,0,0,12.17,1.45,17.3,2.35,5.67.99,10.97,1.5,16.98,6.8,0,0-1.07-3.53-8.59-8.28-10.87-6.88-69.76-39.56-69.76-39.56Z"/>
      <path class="cls-4" d="M165.49,209.24c15.63,15.68,63.93,38.09,76.56,37.29,14.92-.94,50.78-22.52,50.78-22.52,0,0-36.08,23.46-47.74,26.27-14.38,3.47-70.68-28.6-79.6-41.04Z"/>
      <path class="cls-4" d="M48.46,322.98c.65,3.22,6.55,17.59,21.64,29.31,0,0-8.22-4.51-14.91-14.07-6.32-9.04-6.65-7.93-6.09-4.69-1.5-2.9-.64-10.55-.64-10.55Z"/>
      <path class="cls-4" d="M152.65,390.26c-.92,1.41-3.02,2.04-5.75,2.34h0c4.54-.81,6.05-3.82,5.8-6.3-.26-2.49-1.37-2.19-8.12-2.35-6.63-.16-14.14-.81-17.66-1.91,2.41.2,5.62.76,11.5.7,2.74-.03,5.29.19,11.51-.33,5-.42,4.15,5.66,2.73,7.85Z"/>
      <path class="cls-4" d="M86.31,326.86c8.2,6.2,29.54,17.67,54.19,16.06,28.28-1.84,65.68-29.31,65.68-29.31,0,0-33.61,22.96-63.65,26.49-30.04,3.53-56.22-13.24-56.22-13.24Z"/>
      <path class="cls-26" d="M166.91,353.46c.14,1.1-2.43,9.04-12.16,12.6-9.73,3.56-13.43-1.71-12.74-4.39h0c.16-.22.33-.43.53-.64.87-.92,2.2-1.61,3.7-2.19,0,0,0-.01.02-.01,1.4-.55,2.95-1.02,4.41-1.48,3.59-1.14,6.53-2.56,9.01-3.89.75-.4,1.46-.79,2.13-1.17h0c3.07-1.52,4.8-1.05,5.1,1.17Z"/>
      <path class="cls-12" d="M161.16,356.58c-1.88,3.06-6.72,7.78-12.53,7.44-5.8-.35-4.7-4.07-2.4-5.18,0,0,0-.01.02-.01,1.4-.55,2.95-1.02,4.41-1.48,3.59-1.14,6.53-2.56,9.01-3.89,2.67-.9,3.38.07,1.49,3.12Z"/>
      <path class="cls-26" d="M127.83,367.26c-4.78-.38-5.62-3.25-3.95-5.11l.02-.02c.48-.33,1.02-.63,1.63-.88,0,0,0-.01.02-.01,1.01-.41,2.19-.68,3.48-.74,1.06-.05,2.08-.02,3.05.14.02,0,.03,0,.05.01,1.14.17,2.21.51,3.17,1.07,4.02,2.86-2.71,5.91-7.47,5.54Z"/>
      <path class="cls-12" d="M133.59,362.37c-.61.73-4.41,1.89-7.34,1.67-2.93-.23-2.35-1.9-.72-2.79,0,0,0-.01.02-.01,1.01-.41,2.19-.68,3.48-.74,1.06-.05,2.08-.02,3.05.14.02,0,.03,0,.05.01,1.19.28,1.98,1.09,1.46,1.72Z"/>
      <path class="cls-26" d="M55.48,312.05c-.09,1.09-.3,2.26-.65,3.16-1.34.15-2.77-1.4-3.69-4.49-1.4-4.69,1.57-8.01,2.77-7.68h0c.56.71.95,1.86,1.2,3.14,0,0,0,.01.01.02.41,2.06.47,4.46.35,5.85Z"/>
      <path class="cls-12" d="M55.48,312.05c-1.37,3.2-3.29-1.43-3.07-3.6.22-2.18,1.55-3.95,2.71-2.27,0,0,0,.01.01.02.41,2.06.47,4.46.35,5.85Z"/>
      <path class="cls-23" d="M110.85,353.61c-.67.77-2.04.23-5.37-.32-2.82-.46-16.71-6.18-23.77-10.49-1.13-.69-2.28-1.43-3.43-2.22l-.02-.02c5.11,3.16,22.19,10.43,25.91,11.1,4.92.88,5.34.05,3.84-2.44-1.51-2.49-4.09-4.49-6.58-6.16-2.42-1.62-12.33-8.32-17.31-11.2,9.6,5.34,22.34,12.71,23.59,14.34,1.92,2.48,3.8,6.64,3.14,7.41Z"/>
      <path class="cls-23" d="M101.92,376.82c-2.24,2.25-4.33,4.5-7.6,4.56-3.17.06-13.49-4.93-20.49-9.42-4.2-2.69-8.14-5.56-10.73-8.32,9.81,8.06,24.31,14.88,28.65,15.97,4.35,1.1,5.79-.54,8.13-2.69,2.18-2.01-.58-2.06-8.12-6.24-7.5-4.15-17.54-10.97-23.89-16.6,2.21,1.64,5.21,3.76,9.42,6.48,11.75,7.59,17.26,9.97,21.98,12.08,3.34,1.5,4.42,2.42,2.65,4.18Z"/>
      <path class="cls-21" d="M242.05,254.96l-23.82,51.92c-4.7,8.15-54.59-17.12-84.39-38.12,12.75,8.48,51.47,27.54,63.53,31.93,12.06,4.4,17.46,6.08,21.19-.47,3.72-6.55,19.07-40.32,23.49-45.26Z"/>
      <path class="cls-7" d="M121.26,243.24c.28-1.78,6.81-8.77,12.49-15.25,5.68-6.47,19.48-19.78,23-20.07l.71.06c3.4,3.15,7.03,6.18,10.89,9.12,0,0-47.29,27.35-47.09,26.14Z"/>
      <path class="cls-21" d="M321.64,256.15l-28.78,16.39s.03-.02.05-.04c0,0,.02-.01.03-.02,1.1-.74,9.97-6.84,12.07-11.65,2.25-5.14.81-17.24,0-28.15-.49-6.63-2.91-7.2-6.4-5.68,5.36-3.1,10.63-6.14,15.46-8.93-4.72,3.69-4.09,7.59-3.74,11.81.43,5.37.83,16.5,1.87,23.37.79,5.23,5.88,4.17,8.25,3.36,0,0,.02,0,.03-.01.62-.21,1.05-.4,1.16-.45Z"/>
      <path class="cls-21" d="M361.89,232.68c-3.27,1.9-17.41,10.06-34.61,19.99,10.21-6.33,31.02-19.27,33.96-21.65,3.92-3.17,4.29-10.66,4.02-15.92-.27-5.27-3.33-6.7-8.66-9.39-5.33-2.69-11.17-3.63-14.45-2.94h0c8.35-2.45,14.3.99,21.77,5.32,5.23,2.99,4.06,21.17-2.03,24.59Z"/>
      <path class="cls-2" d="M240.02,243.24s33.53-18.95,55.78-32.29c22.25-13.33,44.67-26.79,57.95-24,0,0-5.1-6.11-26.48,3.52-21.38,9.63-87.26,52.77-87.26,52.77Z"/>
      <path class="cls-2" d="M166.9,203.15s33.53-18.95,55.78-32.29c22.25-13.33,49.22-25.91,62.51-23.11,0,0-8.61-5.77-34.29,5.19-21.57,9.2-84,50.2-84,50.2Z"/>
      <path class="cls-7" d="M305.31,144.42c-7.24-1.65-11.93-1.95-15.61-1.72-3.68.22,3.89,4.1,7.19,5.57,3.3,1.47,16.87,1.36,18.97,1.17,2.1-.19-7.18-4.25-10.55-5.02Z"/>
      <path class="cls-24" d="M420.77,228.61c-3.4,2.9-5.73-4.36-6.08-10-.34-5.63.04-6.65,2.03-7.66-.66,1.46-.44,11.21,1.45,14.08,1.85,2.81,4.22.55,4.38-2.1.11,2.69-.6,4.67-1.78,5.68Z"/>
      <path class="cls-13" d="M418.93,217.73c-.08.35-.21.76-.56.87-.41.12-.78-.28-.95-.66-.29-.67-.33-1.43-.21-2.16.11-.69.42-2.14,1.02-2.58.79-.57,1.16.59,1.2,1.2.06,1.08-.26,2.28-.49,3.33Z"/>
      <path class="cls-27" d="M420.74,218.07c-.12-.16-.27-.27-.45-.28-.15,0-.3.09-.38.22-.08.13-.12.28-.14.43-.14.78-.27,2.02.52,2.54.16.11.38.15.56.07.28-.13.37-.48.39-.79.03-.42-.09-1.65-.5-2.2Z"/>
      <path class="cls-7" d="M299.85,231.51c-.69,1.19.02,13.25-2.96,23.45-2.95,10.1-26.4,26.74-26.4,26.74,0,0,26.29-13.53,30.46-19.71,4.17-6.18,2.22-36.24-1.1-30.49Z"/>
      <path class="cls-7" d="M351.24,205c-3.59-.87-3.56.54-.44,2.32,1.6.91,4.17,2.6,5.66,3.63,3.77,2.59,3.77,9.12.96,14.16-1.37,2.46-4.01,4.09-6.05,5.67-7.01,5.43-23.11,17.15-23.11,17.15,0,0,27.85-15.47,31.23-18.56,3.38-3.08,4.26-13.11,3.21-16.34-1.44-4.45-7.03-6.96-11.47-8.04Z"/>
    </g>
    <g>
      <g>
        <polygon class="cls-16" points="230.98 138.42 222.77 133.68 234.96 89.12 243.08 93.81 230.98 138.42"/>
        <polygon class="cls-16" points="263.39 72.7 255.27 68.01 226.83 84.43 234.96 89.12 263.39 72.7"/>
        <polygon class="cls-30" points="247.16 44.56 214.65 110.22 243.08 93.81 230.98 138.42 263.39 72.7 234.96 89.12 247.16 44.56"/>
        <polygon class="cls-16" points="247.16 44.56 239.02 39.87 206.52 105.53 214.65 110.22 247.16 44.56"/>
      </g>
      <polygon class="cls-22" points="239.02 39.87 245.88 44.89 214.65 110.22 247.16 44.56 239.02 39.87"/>
      <polygon class="cls-22" points="255.27 68.01 261.41 72.69 234.96 89.12 263.39 72.7 255.27 68.01"/>
      <polygon class="cls-22" points="222.77 133.68 230.29 136.42 243.08 93.81 230.98 138.42 222.77 133.68"/>
    </g>
  </g>
  <text/>
</svg>